<svg xmlns="http://www.w3.org/2000/svg" viewBox="0 0 1600 960" role="img" aria-label="Ilustração de estante de livros de programação">
  <defs>
    <linearGradient id="bgGlow" x1="0" y1="0" x2="1" y2="1">
      <stop offset="0%" stop-color="#f3eddc" stop-opacity="0.16"/>
      <stop offset="52%" stop-color="#8fb89f" stop-opacity="0.12"/>
      <stop offset="100%" stop-color="#15251d" stop-opacity="0"/>
    </linearGradient>
    <linearGradient id="wood" x1="0" y1="0" x2="0" y2="1">
      <stop offset="0%" stop-color="#7c5232"/>
      <stop offset="48%" stop-color="#5f3b25"/>
      <stop offset="100%" stop-color="#3f281a"/>
    </linearGradient>
    <linearGradient id="woodEdge" x1="0" y1="0" x2="1" y2="0">
      <stop offset="0%" stop-color="#9c6b45"/>
      <stop offset="100%" stop-color="#4d3020"/>
    </linearGradient>
    <linearGradient id="spineDark" x1="0" y1="0" x2="0" y2="1">
      <stop offset="0%" stop-color="#16231e"/>
      <stop offset="100%" stop-color="#09120e"/>
    </linearGradient>
    <linearGradient id="spineWarm" x1="0" y1="0" x2="0" y2="1">
      <stop offset="0%" stop-color="#c38f4d"/>
      <stop offset="100%" stop-color="#8a5b2c"/>
    </linearGradient>
    <linearGradient id="spineMint" x1="0" y1="0" x2="0" y2="1">
      <stop offset="0%" stop-color="#2f8b64"/>
      <stop offset="100%" stop-color="#16533b"/>
    </linearGradient>
    <linearGradient id="spineBlue" x1="0" y1="0" x2="0" y2="1">
      <stop offset="0%" stop-color="#2d4d74"/>
      <stop offset="100%" stop-color="#1d2d47"/>
    </linearGradient>
    <linearGradient id="spineRed" x1="0" y1="0" x2="0" y2="1">
      <stop offset="0%" stop-color="#a44c48"/>
      <stop offset="100%" stop-color="#642622"/>
    </linearGradient>
    <filter id="softShadow" x="-20%" y="-20%" width="140%" height="160%">
      <feDropShadow dx="0" dy="14" stdDeviation="20" flood-color="#041109" flood-opacity="0.28"/>
    </filter>
  </defs>

  <rect width="1600" height="960" fill="url(#bgGlow)"/>

  <g opacity="0.55">
    <circle cx="230" cy="200" r="110" fill="#d9e7cc" opacity="0.14"/>
    <circle cx="1350" cy="150" r="140" fill="#edf3e6" opacity="0.10"/>
    <circle cx="1200" cy="780" r="130" fill="#8ea78e" opacity="0.08"/>
  </g>

  <g filter="url(#softShadow)">
    <rect x="120" y="180" width="1360" height="580" rx="34" fill="#241610" fill-opacity="0.16"/>
    <g opacity="0.96">
      <rect x="140" y="240" width="1320" height="16" rx="8" fill="url(#wood)"/>
      <rect x="140" y="478" width="1320" height="16" rx="8" fill="url(#wood)"/>
      <rect x="140" y="716" width="1320" height="16" rx="8" fill="url(#wood)"/>
      <rect x="140" y="224" width="1320" height="18" rx="9" fill="url(#woodEdge)" opacity="0.95"/>
      <rect x="140" y="462" width="1320" height="18" rx="9" fill="url(#woodEdge)" opacity="0.95"/>
      <rect x="140" y="700" width="1320" height="18" rx="9" fill="url(#woodEdge)" opacity="0.95"/>
    </g>
  </g>

  <g opacity="0.94">
    <!-- upper shelf -->
    <g transform="translate(170 288)">
      <rect x="0" y="0" width="58" height="188" rx="8" fill="url(#spineMint)"/>
      <rect x="66" y="18" width="44" height="170" rx="8" fill="url(#spineDark)"/>
      <rect x="118" y="28" width="66" height="160" rx="8" fill="url(#spineBlue)"/>
      <rect x="194" y="6" width="52" height="182" rx="8" fill="url(#spineWarm)"/>
      <rect x="254" y="34" width="74" height="154" rx="8" fill="url(#spineRed)"/>
      <rect x="336" y="20" width="46" height="168" rx="8" fill="url(#spineDark)"/>
      <rect x="390" y="0" width="62" height="188" rx="8" fill="url(#spineMint)"/>
      <rect x="460" y="22" width="50" height="166" rx="8" fill="url(#spineBlue)"/>
      <rect x="518" y="10" width="88" height="178" rx="8" fill="url(#spineWarm)"/>
      <rect x="614" y="34" width="54" height="154" rx="8" fill="url(#spineDark)"/>
      <rect x="676" y="12" width="64" height="176" rx="8" fill="url(#spineRed)"/>
      <rect x="750" y="26" width="48" height="162" rx="8" fill="url(#spineMint)"/>
      <rect x="806" y="6" width="72" height="182" rx="8" fill="url(#spineBlue)"/>
      <rect x="886" y="38" width="58" height="150" rx="8" fill="url(#spineDark)"/>
      <rect x="952" y="14" width="90" height="174" rx="8" fill="url(#spineWarm)"/>
      <rect x="1050" y="26" width="52" height="162" rx="8" fill="url(#spineRed)"/>
      <rect x="1110" y="0" width="64" height="188" rx="8" fill="url(#spineMint)"/>
      <rect x="1182" y="24" width="46" height="164" rx="8" fill="url(#spineBlue)"/>
      <rect x="1238" y="8" width="78" height="180" rx="8" fill="url(#spineDark)"/>
      <rect x="1324" y="32" width="52" height="156" rx="8" fill="url(#spineWarm)"/>

      <text x="29" y="78" fill="#f6f6f0" font-family="Sora, IBM Plex Sans, sans-serif" font-size="20" font-weight="700" text-anchor="middle" transform="rotate(-90 29 78)">Python</text>
      <text x="88" y="132" fill="#dce7df" font-family="IBM Plex Sans, sans-serif" font-size="16" font-weight="700" text-anchor="middle" transform="rotate(-90 88 132)">C++</text>
      <text x="151" y="124" fill="#edf3e6" font-family="IBM Plex Sans, sans-serif" font-size="16" font-weight="700" text-anchor="middle" transform="rotate(-90 151 124)">ML</text>
      <text x="220" y="108" fill="#fff7ea" font-family="IBM Plex Sans, sans-serif" font-size="18" font-weight="700" text-anchor="middle" transform="rotate(-90 220 108)">TeX</text>
      <text x="291" y="128" fill="#fff7ea" font-family="IBM Plex Sans, sans-serif" font-size="18" font-weight="700" text-anchor="middle" transform="rotate(-90 291 128)">AI</text>
      <text x="359" y="118" fill="#ddebe2" font-family="IBM Plex Sans, sans-serif" font-size="15" font-weight="700" text-anchor="middle" transform="rotate(-90 359 118)">C</text>
      <text x="420" y="76" fill="#f2fff5" font-family="Sora, IBM Plex Sans, sans-serif" font-size="17" font-weight="800" text-anchor="middle" transform="rotate(-90 420 76)">Git</text>
      <text x="484" y="125" fill="#e8f2ff" font-family="IBM Plex Sans, sans-serif" font-size="16" font-weight="700" text-anchor="middle" transform="rotate(-90 484 125)">JS</text>
      <text x="562" y="118" fill="#fff8ef" font-family="IBM Plex Sans, sans-serif" font-size="18" font-weight="700" text-anchor="middle" transform="rotate(-90 562 118)">Data</text>
      <text x="640" y="120" fill="#f4f6f8" font-family="IBM Plex Sans, sans-serif" font-size="16" font-weight="700" text-anchor="middle" transform="rotate(-90 640 120)">Bio</text>
      <text x="708" y="122" fill="#fff8ef" font-family="IBM Plex Sans, sans-serif" font-size="16" font-weight="700" text-anchor="middle" transform="rotate(-90 708 122)">Linux</text>
      <text x="774" y="116" fill="#e7fff1" font-family="IBM Plex Sans, sans-serif" font-size="15" font-weight="700" text-anchor="middle" transform="rotate(-90 774 116)">CI</text>
      <text x="842" y="112" fill="#eff6ff" font-family="IBM Plex Sans, sans-serif" font-size="17" font-weight="700" text-anchor="middle" transform="rotate(-90 842 112)">Py</text>
      <text x="915" y="118" fill="#f8fbf4" font-family="IBM Plex Sans, sans-serif" font-size="16" font-weight="700" text-anchor="middle" transform="rotate(-90 915 118)">Docs</text>
      <text x="997" y="126" fill="#fff6ec" font-family="IBM Plex Sans, sans-serif" font-size="16" font-weight="700" text-anchor="middle" transform="rotate(-90 997 126)">ML</text>
      <text x="1076" y="110" fill="#f8fbf4" font-family="IBM Plex Sans, sans-serif" font-size="16" font-weight="700" text-anchor="middle" transform="rotate(-90 1076 110)">C</text>
      <text x="1139" y="82" fill="#e7fff1" font-family="Sora, IBM Plex Sans, sans-serif" font-size="17" font-weight="800" text-anchor="middle" transform="rotate(-90 1139 82)">API</text>
      <text x="1203" y="122" fill="#edf3e6" font-family="IBM Plex Sans, sans-serif" font-size="15" font-weight="700" text-anchor="middle" transform="rotate(-90 1203 122)">SQL</text>
      <text x="1276" y="120" fill="#f6f6f0" font-family="IBM Plex Sans, sans-serif" font-size="15" font-weight="700" text-anchor="middle" transform="rotate(-90 1276 120)">JS</text>
      <text x="1350" y="112" fill="#fff8ef" font-family="IBM Plex Sans, sans-serif" font-size="16" font-weight="700" text-anchor="middle" transform="rotate(-90 1350 112)">OSS</text>

      <rect x="22" y="18" width="16" height="152" rx="8" fill="#ffffff" opacity="0.18"/>
      <rect x="205" y="14" width="10" height="160" rx="5" fill="#ffffff" opacity="0.12"/>
      <rect x="548" y="14" width="12" height="162" rx="6" fill="#ffffff" opacity="0.16"/>
      <rect x="967" y="18" width="12" height="156" rx="6" fill="#ffffff" opacity="0.14"/>
      <rect x="1260" y="16" width="10" height="160" rx="5" fill="#ffffff" opacity="0.12"/>
    </g>

    <!-- lower shelf -->
    <g transform="translate(190 524)">
      <rect x="0" y="0" width="54" height="170" rx="8" fill="url(#spineDark)"/>
      <rect x="62" y="24" width="86" height="146" rx="8" fill="url(#spineWarm)"/>
      <rect x="156" y="12" width="50" height="158" rx="8" fill="url(#spineMint)"/>
      <rect x="214" y="34" width="60" height="136" rx="8" fill="url(#spineBlue)"/>
      <rect x="282" y="16" width="72" height="154" rx="8" fill="url(#spineRed)"/>
      <rect x="364" y="0" width="58" height="170" rx="8" fill="url(#spineWarm)"/>
      <rect x="430" y="20" width="90" height="150" rx="8" fill="url(#spineDark)"/>
      <rect x="528" y="40" width="46" height="130" rx="8" fill="url(#spineMint)"/>
      <rect x="582" y="14" width="66" height="156" rx="8" fill="url(#spineBlue)"/>
      <rect x="658" y="30" width="52" height="140" rx="8" fill="url(#spineRed)"/>
      <rect x="718" y="4" width="78" height="166" rx="8" fill="url(#spineWarm)"/>
      <rect x="804" y="26" width="58" height="144" rx="8" fill="url(#spineDark)"/>
      <rect x="872" y="0" width="62" height="170" rx="8" fill="url(#spineMint)"/>
      <rect x="944" y="18" width="54" height="152" rx="8" fill="url(#spineBlue)"/>
      <rect x="1006" y="10" width="86" height="160" rx="8" fill="url(#spineRed)"/>
      <rect x="1100" y="36" width="48" height="134" rx="8" fill="url(#spineWarm)"/>
      <rect x="1156" y="8" width="70" height="162" rx="8" fill="url(#spineDark)"/>
      <rect x="1234" y="24" width="58" height="146" rx="8" fill="url(#spineMint)"/>
      <rect x="1302" y="0" width="78" height="170" rx="8" fill="url(#spineBlue)"/>

      <text x="26" y="97" fill="#edf3e6" font-family="IBM Plex Sans, sans-serif" font-size="18" font-weight="700" text-anchor="middle" transform="rotate(-90 26 97)">C#</text>
      <text x="106" y="108" fill="#fff7ea" font-family="Sora, IBM Plex Sans, sans-serif" font-size="17" font-weight="800" text-anchor="middle" transform="rotate(-90 106 108)">Stack</text>
      <text x="181" y="90" fill="#f2fff5" font-family="IBM Plex Sans, sans-serif" font-size="15" font-weight="700" text-anchor="middle" transform="rotate(-90 181 90)">ML</text>
      <text x="244" y="104" fill="#e8f2ff" font-family="IBM Plex Sans, sans-serif" font-size="16" font-weight="700" text-anchor="middle" transform="rotate(-90 244 104)">Py</text>
      <text x="318" y="98" fill="#fff8ef" font-family="IBM Plex Sans, sans-serif" font-size="17" font-weight="700" text-anchor="middle" transform="rotate(-90 318 98)">AI</text>
      <text x="393" y="92" fill="#fff8ef" font-family="IBM Plex Sans, sans-serif" font-size="18" font-weight="700" text-anchor="middle" transform="rotate(-90 393 92)">Git</text>
      <text x="475" y="96" fill="#f6f6f0" font-family="IBM Plex Sans, sans-serif" font-size="15" font-weight="700" text-anchor="middle" transform="rotate(-90 475 96)">C</text>
      <text x="551" y="100" fill="#e7fff1" font-family="IBM Plex Sans, sans-serif" font-size="16" font-weight="700" text-anchor="middle" transform="rotate(-90 551 100)">Docs</text>
      <text x="615" y="92" fill="#eff6ff" font-family="IBM Plex Sans, sans-serif" font-size="15" font-weight="700" text-anchor="middle" transform="rotate(-90 615 92)">JS</text>
      <text x="684" y="92" fill="#fff7ea" font-family="IBM Plex Sans, sans-serif" font-size="16" font-weight="700" text-anchor="middle" transform="rotate(-90 684 92)">Data</text>
      <text x="755" y="102" fill="#f4f6f8" font-family="IBM Plex Sans, sans-serif" font-size="15" font-weight="700" text-anchor="middle" transform="rotate(-90 755 102)">Bio</text>
      <text x="834" y="92" fill="#ffffff" font-family="Sora, IBM Plex Sans, sans-serif" font-size="16" font-weight="800" text-anchor="middle" transform="rotate(-90 834 92)">SQL</text>
      <text x="902" y="90" fill="#f2fff5" font-family="IBM Plex Sans, sans-serif" font-size="15" font-weight="700" text-anchor="middle" transform="rotate(-90 902 90)">C++</text>
      <text x="971" y="98" fill="#e8f2ff" font-family="IBM Plex Sans, sans-serif" font-size="16" font-weight="700" text-anchor="middle" transform="rotate(-90 971 98)">API</text>
      <text x="1049" y="104" fill="#fff7ea" font-family="IBM Plex Sans, sans-serif" font-size="16" font-weight="700" text-anchor="middle" transform="rotate(-90 1049 104)">OSS</text>
      <text x="1123" y="96" fill="#f6f6f0" font-family="IBM Plex Sans, sans-serif" font-size="15" font-weight="700" text-anchor="middle" transform="rotate(-90 1123 96)">TeX</text>
      <text x="1192" y="92" fill="#edf3e6" font-family="IBM Plex Sans, sans-serif" font-size="16" font-weight="700" text-anchor="middle" transform="rotate(-90 1192 92)">ML</text>
      <text x="1263" y="100" fill="#e7fff1" font-family="IBM Plex Sans, sans-serif" font-size="15" font-weight="700" text-anchor="middle" transform="rotate(-90 1263 100)">Git</text>
      <text x="1340" y="96" fill="#f8fbf4" font-family="IBM Plex Sans, sans-serif" font-size="16" font-weight="700" text-anchor="middle" transform="rotate(-90 1340 96)">JS</text>

      <rect x="25" y="16" width="12" height="146" rx="6" fill="#ffffff" opacity="0.12"/>
      <rect x="122" y="18" width="12" height="142" rx="6" fill="#ffffff" opacity="0.14"/>
      <rect x="300" y="14" width="10" height="146" rx="5" fill="#ffffff" opacity="0.12"/>
      <rect x="767" y="14" width="12" height="148" rx="6" fill="#ffffff" opacity="0.13"/>
      <rect x="1131" y="18" width="10" height="142" rx="5" fill="#ffffff" opacity="0.12"/>
    </g>

    <!-- lower accent books to fill gaps -->
    <g opacity="0.88" transform="translate(1220 568)">
      <rect x="0" y="0" width="34" height="128" rx="7" fill="url(#spineDark)"/>
      <rect x="40" y="14" width="46" height="114" rx="7" fill="url(#spineMint)"/>
      <rect x="94" y="0" width="30" height="128" rx="7" fill="url(#spineWarm)"/>
      <rect x="132" y="22" width="40" height="106" rx="7" fill="url(#spineBlue)"/>
      <rect x="180" y="10" width="30" height="118" rx="7" fill="url(#spineRed)"/>
      <rect x="218" y="0" width="54" height="128" rx="7" fill="url(#spineDark)"/>
      <rect x="280" y="18" width="34" height="110" rx="7" fill="url(#spineMint)"/>
      <rect x="322" y="4" width="50" height="124" rx="7" fill="url(#spineWarm)"/>
    </g>
  </g>

  <g opacity="0.16">
    <path d="M90 860 C 260 780, 400 820, 520 830 S 830 860, 970 820 S 1270 760, 1510 850" fill="none" stroke="#f9f4e6" stroke-width="10" stroke-linecap="round"/>
    <path d="M120 888 C 300 828, 460 864, 610 874 S 920 900, 1080 864 S 1310 812, 1490 900" fill="none" stroke="#7aa48b" stroke-width="6" stroke-linecap="round"/>
  </g>
</svg>
