<svg xmlns="http://www.w3.org/2000/svg" width="1200" height="630" viewBox="0 0 1200 630" role="img" aria-label="Social share card for Tiago Alves de Oliveira">
  <defs>
    <linearGradient id="bg" x1="0" x2="1" y1="0" y2="1">
      <stop offset="0%" stop-color="#07100b"/>
      <stop offset="55%" stop-color="#0d1d14"/>
      <stop offset="100%" stop-color="#133021"/>
    </linearGradient>
    <radialGradient id="glow" cx="0.82" cy="0.18" r="0.55">
      <stop offset="0%" stop-color="#62eea1" stop-opacity="0.35"/>
      <stop offset="100%" stop-color="#62eea1" stop-opacity="0"/>
    </radialGradient>
    <linearGradient id="chip" x1="0" x2="1" y1="0" y2="0">
      <stop offset="0%" stop-color="#43d17e"/>
      <stop offset="100%" stop-color="#209e56"/>
    </linearGradient>
  </defs>

  <rect width="1200" height="630" fill="url(#bg)"/>
  <rect width="1200" height="630" fill="url(#glow)"/>

  <g opacity="0.13" stroke="#a9f6c7" stroke-width="1">
    <path d="M0 112H1200"/>
    <path d="M0 184H1200"/>
    <path d="M0 256H1200"/>
    <path d="M0 328H1200"/>
    <path d="M0 400H1200"/>
    <path d="M0 472H1200"/>
    <path d="M160 0V630"/>
    <path d="M320 0V630"/>
    <path d="M480 0V630"/>
    <path d="M640 0V630"/>
    <path d="M800 0V630"/>
    <path d="M960 0V630"/>
  </g>

  <rect x="78" y="72" width="180" height="42" rx="21" fill="url(#chip)"/>
  <text x="168" y="99" text-anchor="middle" font-family="IBM Plex Sans, Arial, sans-serif" font-size="20" font-weight="700" fill="#041109">TIAGOFGA</text>

  <text x="78" y="212" font-family="Sora, Arial, sans-serif" font-size="64" font-weight="800" fill="#f2fff6">Tiago Alves</text>
  <text x="78" y="282" font-family="Sora, Arial, sans-serif" font-size="64" font-weight="800" fill="#f2fff6">de Oliveira</text>

  <text x="78" y="346" font-family="IBM Plex Sans, Arial, sans-serif" font-size="28" font-weight="600" fill="#85eab3">Professor · Researcher · Software Developer</text>
  <text x="78" y="392" font-family="IBM Plex Sans, Arial, sans-serif" font-size="26" font-weight="500" fill="#cde8d8">CEFET-MG · Bioengineering · Applied AI</text>

  <g>
    <rect x="78" y="456" width="332" height="68" rx="34" fill="#0f2b1c" stroke="#2dbb68"/>
    <text x="244" y="499" text-anchor="middle" font-family="IBM Plex Sans, Arial, sans-serif" font-size="28" font-weight="700" fill="#dfffee">github.com/tiagofga</text>
  </g>

  <circle cx="1032" cy="170" r="92" fill="#10291b" stroke="#43d17e" stroke-width="2"/>
  <text x="1032" y="184" text-anchor="middle" font-family="Sora, Arial, sans-serif" font-size="86" font-weight="800" fill="#b9ffd8">T</text>

  <rect x="914" y="472" width="208" height="70" rx="24" fill="#143625" stroke="#49dc89"/>
  <text x="1018" y="516" text-anchor="middle" font-family="IBM Plex Sans, Arial, sans-serif" font-size="28" font-weight="700" fill="#e7fff1">PT / EN</text>
</svg>